<?xml version="1.0" encoding="utf-8"?>
<!-- Generator: Adobe Illustrator 24.0.3, SVG Export Plug-In . SVG Version: 6.00 Build 0)  -->
<svg version="1.1" xmlns="http://www.w3.org/2000/svg" xmlns:xlink="http://www.w3.org/1999/xlink" x="0px" y="0px"
	 viewBox="0 0 1080 1080" style="enable-background:new 0 0 1080 1080;" xml:space="preserve">
<style type="text/css">
	.st0{fill:#BFA380;}
	.st1{fill:#ffffff;}
	.st2{fill:#DBF1FF;}
	.st3{fill:#0089EF;}
	.st4{fill:#F2ECBF;}
	.st5{fill:#0782E0;}
	.st6{fill:#609937;}
	.st7{fill:#83C950;}
	.st8{fill:#99E067;}
	.st9{fill-rule:evenodd;clip-rule:evenodd;fill:#99E067;}
	.st10{fill:#0472C7;}
	.st11{fill:#CCCCCC;}
	.st12{fill:#E6E6E6;}
	.st13{fill:#333333;}
	.st14{fill:#ED4250;}
</style>
<g id="buku_2">
	<path class="st0" d="M437.3,341.82c0.68,2.88-1.1,5.77-3.98,6.45l-213.92,50.6c-2.88,0.68-5.77-1.1-6.45-3.98
		c-0.68-2.88,1.1-5.77,3.98-6.45l213.92-50.6C433.73,337.16,436.62,338.94,437.3,341.82L437.3,341.82z"/>
	<path class="st0" d="M208,374.02c-0.68-2.88,1.1-5.77,3.98-6.45l213.92-50.6c2.88-0.68,5.77,1.1,6.45,3.98
		c0.68,2.88-1.1,5.77-3.98,6.45L214.46,378C211.58,378.69,208.69,376.9,208,374.02L208,374.02z"/>
	<path class="st1" d="M432.36,320.95c0.68,2.88-1.1,5.77-3.98,6.45L214.46,378c-2.88,0.68-5.77-1.1-6.45-3.98
		c-0.68-2.88,1.1-5.77,3.98-6.45l213.92-50.6C428.79,316.29,431.68,318.07,432.36,320.95L432.36,320.95z"/>
	<path class="st2" d="M483.98,352.82l-15.65,3.7l-1.41-5.95c-0.33-1.39-1.21-2.59-2.44-3.33c-14.71-9.46-19.17-28.94-10.04-43.85
		l0.98-1.44l-0.67-2.82c-0.68-2.88-3.57-4.67-6.45-3.98l-245.23,58.01c-16.97,4.01-27.66,20.81-24.1,37.88l56.97,240.85
		c4.09,17.29,21.42,27.99,38.71,23.9l266.1-62.94c2.88-0.68,4.66-3.57,3.98-6.45l-54.3-229.57
		C489.75,353.92,486.86,352.14,483.98,352.82L483.98,352.82z M211.99,367.57l213.92-50.6c2.88-0.68,5.77,1.1,6.45,3.98
		c0.68,2.88-1.1,5.77-3.98,6.45l-213.92,50.6c-2.88,0.68-5.77-1.1-6.45-3.98C207.32,371.14,209.11,368.25,211.99,367.57
		L211.99,367.57z M216.92,388.44l213.92-50.6c2.88-0.68,5.77,1.1,6.45,3.98c0.68,2.88-1.1,5.77-3.98,6.45l-213.92,50.6
		c-2.88,0.68-5.77-1.1-6.45-3.98C212.26,392.01,214.04,389.12,216.92,388.44L216.92,388.44z"/>
	<path class="st3" d="M490.43,356.8l78.38,331.37c0.68,2.88-1.1,5.77-3.98,6.45l-266.1,62.94c-17.29,4.09-34.62-6.61-38.71-23.9
		l-80.85-341.81c4.09,17.29,21.42,27.99,38.71,23.9l266.1-62.94C486.86,352.14,489.75,353.92,490.43,356.8L490.43,356.8z"/>
	<path class="st4" d="M252.89,424.01l219.14-51.83c2.88-0.68,5.77,1.1,6.45,3.98l11.11,46.96c0.68,2.88-1.1,5.77-3.98,6.45
		l-219.14,51.84c-2.88,0.68-5.77-1.1-6.45-3.98l-11.11-46.96C248.22,427.58,250.01,424.69,252.89,424.01L252.89,424.01z"/>
	<path class="st1" d="M437.3,341.82c0.68,2.88-1.1,5.77-3.98,6.45l-213.92,50.6c-2.88,0.68-5.77-1.1-6.45-3.98
		c-0.68-2.88,1.1-5.77,3.98-6.45l213.92-50.6C433.73,337.16,436.62,338.94,437.3,341.82L437.3,341.82z"/>
	<path class="st5" d="M228.31,413.3l80.85,341.81l-10.44,2.47c-17.29,4.09-34.62-6.61-38.71-23.9l-80.85-341.81
		c4.09,17.29,21.42,27.99,38.71,23.9L228.31,413.3L228.31,413.3L228.31,413.3z"/>
	<path class="st6" d="M449.29,563.23c-1.96-5.69-4.79-10.89-8.32-15.46L454,535.49c2.19-2.07,2.29-5.52,0.23-7.71
		c-2.07-2.19-5.52-2.3-7.71-0.23l0,0l-13.03,12.28c-4.45-3.85-9.5-6.97-14.94-9.22l5.14-17.15c0.86-2.89-0.77-5.93-3.66-6.79
		c-2.89-0.87-5.93,0.77-6.79,3.66v0l-5.14,17.14c-5.67-1.1-11.58-1.31-17.55-0.51l-4.12-17.43c-0.69-2.93-3.63-4.75-6.56-4.05
		c-2.93,0.69-4.75,3.63-4.05,6.56l4.12,17.43c-5.7,1.96-10.89,4.79-15.46,8.32l-12.27-13.02c-2.07-2.19-5.52-2.29-7.71-0.23
		c-2.19,2.07-2.29,5.52-0.23,7.71l0,0l12.28,13.03c-3.85,4.45-6.97,9.5-9.22,14.94l-17.15-5.14c-2.89-0.87-5.93,0.77-6.79,3.66
		c-0.87,2.89,0.77,5.93,3.66,6.79l0,0l17.14,5.14c-1.1,5.67-1.31,11.58-0.51,17.55l-17.43,4.12c-2.93,0.69-4.75,3.63-4.05,6.56
		c0.69,2.93,3.63,4.74,6.56,4.05l17.43-4.12c1.96,5.69,4.79,10.89,8.32,15.46l-13.02,12.27c-2.19,2.07-2.29,5.52-0.23,7.71
		c2.07,2.19,5.52,2.3,7.71,0.23l0,0l13.03-12.28c4.45,3.86,9.5,6.97,14.94,9.22l-5.14,17.15c-0.87,2.89,0.77,5.93,3.66,6.79
		c2.89,0.87,5.93-0.77,6.79-3.66l0,0l5.14-17.14c5.67,1.1,11.58,1.31,17.55,0.51l4.12,17.43c0.69,2.93,3.63,4.75,6.56,4.05
		c2.93-0.69,4.74-3.63,4.05-6.56l-4.12-17.43c5.69-1.96,10.89-4.79,15.46-8.32l12.28,13.02c2.07,2.19,5.52,2.29,7.71,0.23
		c2.19-2.07,2.3-5.52,0.23-7.71l0,0l-12.28-13.03c3.86-4.45,6.97-9.5,9.22-14.94l17.15,5.14c2.89,0.86,5.93-0.77,6.79-3.66
		c0.87-2.88-0.77-5.93-3.66-6.79l0,0l-17.14-5.14c1.1-5.67,1.31-11.58,0.51-17.55l17.43-4.12c2.93-0.69,4.75-3.63,4.05-6.56
		c-0.69-2.93-3.63-4.75-6.56-4.05L449.29,563.23L449.29,563.23z"/>
	<path class="st7" d="M408.37,625.99c24.92-5.89,40.34-30.87,34.44-55.79c-5.89-24.92-30.87-40.34-55.79-34.44
		c-24.92,5.89-40.34,30.87-34.44,55.79C358.48,616.47,383.45,631.89,408.37,625.99L408.37,625.99z"/>
	<path class="st8" d="M408.37,625.99c24.92-5.89,40.34-30.87,34.44-55.79c-5.89-24.92-30.87-40.34-55.79-34.44
		c19.05-4.51,39.28,12.04,45.17,36.95C438.1,597.63,427.43,621.49,408.37,625.99L408.37,625.99z"/>
	<path class="st8" d="M405.7,579.14c-1.04-4.4-5.45-7.12-9.84-6.08c-4.4,1.04-7.12,5.45-6.08,9.85c1.04,4.4,5.45,7.12,9.85,6.08
		C404.01,587.95,406.74,583.54,405.7,579.14L405.7,579.14z"/>
	<path class="st8" d="M424.4,598.99c-1.04-4.4-5.45-7.12-9.84-6.08c-4.4,1.04-7.12,5.45-6.08,9.85c1.04,4.4,5.45,7.12,9.85,6.08
		C422.72,607.79,425.44,603.39,424.4,598.99L424.4,598.99z"/>
	<path class="st8" d="M432.23,572.87c-1.04-4.4-5.45-7.12-9.84-6.08c-4.4,1.04-7.12,5.45-6.08,9.84c1.04,4.4,5.45,7.12,9.85,6.08
		C430.55,581.67,433.28,577.26,432.23,572.87L432.23,572.87z"/>
	<path class="st8" d="M413.53,553.02c-1.04-4.4-5.45-7.12-9.84-6.08c-4.4,1.04-7.12,5.45-6.08,9.84c1.04,4.4,5.45,7.12,9.85,6.08
		C411.85,561.83,414.57,557.42,413.53,553.02L413.53,553.02z"/>
	<path class="st8" d="M386.99,559.3c-1.04-4.4-5.45-7.12-9.85-6.08c-4.4,1.04-7.12,5.45-6.08,9.85c1.04,4.4,5.45,7.12,9.85,6.08
		C385.31,568.1,388.03,563.69,386.99,559.3L386.99,559.3z"/>
	<path class="st8" d="M379.16,585.42c-1.04-4.4-5.45-7.12-9.84-6.08c-4.4,1.04-7.12,5.45-6.08,9.84c1.04,4.4,5.45,7.12,9.85,6.08
		C377.48,594.22,380.2,589.82,379.16,585.42L379.16,585.42z"/>
	<path class="st8" d="M397.86,605.27c-1.04-4.4-5.45-7.12-9.84-6.08c-4.4,1.04-7.12,5.45-6.08,9.85c1.04,4.4,5.45,7.12,9.85,6.08
		C396.18,614.07,398.9,609.66,397.86,605.27L397.86,605.27z"/>
	<path class="st9" d="M377.66,496.17c5.14-1.22,10.3,1.97,11.51,7.11c1.22,5.14-1.97,10.3-7.11,11.51
		c-5.14,1.22-10.3-1.97-11.51-7.11C369.34,502.54,372.52,497.38,377.66,496.17L377.66,496.17z M337.99,517.54
		c3.85-3.62,9.9-3.45,13.53,0.4c3.62,3.84,3.45,9.9-0.4,13.53c-3.84,3.62-9.9,3.45-13.53-0.4
		C333.97,527.21,334.15,521.16,337.99,517.54L337.99,517.54z M314.32,555.88c1.52-5.06,6.85-7.93,11.91-6.42
		c5.06,1.52,7.93,6.85,6.42,11.91c-1.52,5.06-6.85,7.94-11.91,6.42C315.67,566.27,312.8,560.94,314.32,555.88L314.32,555.88z
		 M312.99,600.92c-1.22-5.14,1.97-10.3,7.11-11.51c5.14-1.22,10.3,1.97,11.51,7.11c1.22,5.14-1.97,10.3-7.11,11.51
		C319.36,609.24,314.2,606.06,312.99,600.92L312.99,600.92z M334.36,640.59c-3.62-3.84-3.45-9.9,0.4-13.53
		c3.85-3.62,9.9-3.45,13.53,0.4c3.63,3.84,3.45,9.9-0.4,13.52C344.04,644.61,337.98,644.43,334.36,640.59L334.36,640.59z
		 M372.7,664.26c-5.06-1.52-7.94-6.85-6.42-11.91c1.52-5.06,6.85-7.94,11.91-6.42c5.06,1.52,7.93,6.85,6.42,11.91
		C383.09,662.9,377.76,665.78,372.7,664.26L372.7,664.26z M417.74,665.59c-5.14,1.22-10.3-1.97-11.51-7.11
		c-1.22-5.14,1.97-10.3,7.11-11.51c5.14-1.22,10.3,1.97,11.51,7.11C426.06,659.22,422.88,664.37,417.74,665.59L417.74,665.59z
		 M457.41,644.22c-3.85,3.63-9.9,3.45-13.53-0.4c-3.62-3.84-3.45-9.9,0.4-13.53c3.84-3.62,9.9-3.45,13.53,0.4
		C461.43,634.54,461.25,640.6,457.41,644.22L457.41,644.22z M481.08,605.88c-1.52,5.06-6.85,7.93-11.91,6.42
		c-5.06-1.52-7.93-6.85-6.42-11.91c1.52-5.06,6.85-7.93,11.91-6.42C479.73,595.49,482.6,600.82,481.08,605.88L481.08,605.88z
		 M482.41,560.84c1.22,5.14-1.97,10.3-7.11,11.51c-5.14,1.22-10.3-1.97-11.51-7.11c-1.22-5.14,1.97-10.3,7.11-11.51
		S481.2,555.7,482.41,560.84L482.41,560.84z M461.04,521.17c3.62,3.84,3.45,9.9-0.4,13.53c-3.85,3.62-9.9,3.45-13.53-0.4
		c-3.63-3.85-3.45-9.9,0.4-13.53C451.36,517.15,457.42,517.32,461.04,521.17L461.04,521.17z M422.7,497.5
		c5.06,1.52,7.94,6.85,6.42,11.91c-1.52,5.06-6.85,7.93-11.91,6.42c-5.06-1.52-7.93-6.85-6.42-11.91
		C412.31,498.85,417.64,495.98,422.7,497.5L422.7,497.5z"/>
</g>
<g id="buku_1">
	<g>
		<polygon class="st10" points="684.09,451.2 466.47,415.5 417.57,713.59 635.19,749.3 852.81,785 901.71,486.91 		"/>
		<polygon class="st11" points="662.89,473.91 662.89,473.91 487.79,445.18 447.25,692.27 639.37,723.79 831.49,755.31 
			872.03,508.22 		"/>
		<polygon class="st12" points="650.28,657.31 650.54,655.73 642.31,655.23 633.52,652.94 633.91,654.72 481.15,645.41 
			476.96,670.94 643.56,698.27 810.15,725.6 814.34,700.08 		"/>
		<polygon class="st2" points="750.06,435.79 735.92,442.21 724.56,431.61 688.28,425.66 521.69,398.32 481.15,645.41 
			647.74,672.75 814.34,700.08 854.88,452.99 		"/>
		<g>
			
				<rect x="558.45" y="562.36" transform="matrix(0.1619 -0.9868 0.9868 0.1619 -129.8708 1080.822)" class="st13" width="25.84" height="109.02"/>
			
				<rect x="567.35" y="508.13" transform="matrix(0.1619 -0.9868 0.9868 0.1619 -68.9029 1044.1653)" class="st13" width="25.84" height="109.03"/>
			
				<rect x="576.24" y="453.91" transform="matrix(0.1619 -0.9868 0.9868 0.1619 -7.9377 1007.5021)" class="st13" width="25.84" height="109.03"/>
			
				<rect x="585.14" y="399.69" transform="matrix(0.1619 -0.9868 0.9868 0.1619 53.0226 970.8342)" class="st13" width="25.84" height="109.02"/>
		</g>
		<g>
			
				<rect x="731.42" y="604.06" transform="matrix(0.1619 -0.9868 0.9868 0.1619 -12.9075 1275.299)" class="st13" width="25.84" height="82.38"/>
			
				<rect x="740.32" y="549.84" transform="matrix(0.1619 -0.9868 0.9868 0.1619 48.0532 1238.6331)" class="st13" width="25.84" height="82.38"/>
			
				<rect x="758.11" y="441.39" transform="matrix(0.1619 -0.9868 0.9868 0.1619 169.9817 1165.3069)" class="st13" width="25.84" height="82.38"/>
			
				<rect x="749.21" y="495.61" transform="matrix(0.1619 -0.9868 0.9868 0.1619 109.0166 1201.9691)" class="st13" width="25.84" height="82.38"/>
		</g>
		<polygon class="st14" points="724.56,431.61 750.06,435.79 692.78,784.95 667.27,780.77 724.56,431.61 		"/>
	</g>
</g>
</svg>
