<?xml version="1.0" encoding="utf-8"?>
<!-- Generator: Adobe Illustrator 24.3.0, SVG Export Plug-In . SVG Version: 6.00 Build 0)  -->
<svg version="1.1" id="Layer_1" xmlns="http://www.w3.org/2000/svg" xmlns:xlink="http://www.w3.org/1999/xlink" x="0px" y="0px"
	 viewBox="0 0 180 180" style="enable-background:new 0 0 180 180;" xml:space="preserve">
<style type="text/css">
	.st0{fill:#FFD55C;}
	.st1{fill:#B3B3B3;}
	.st2{fill:#ffffff;}
	.st3{fill:#192E2D;}
	.st4{fill:#45525B;}
	.st5{fill:#FF9975;}
	.st6{fill:#CFDBE5;}
	.st7{fill:#F5F0D9;}
</style>
<g>
	<g id="XMLID_390_">
		<path class="st0" d="M90,25.4c-35.7,0-64.6,28.9-64.6,64.6c0,35.7,28.9,64.6,64.6,64.6c35.7,0,64.6-28.9,64.6-64.6
			C154.6,54.3,125.7,25.4,90,25.4z"/>
	</g>
	<g>
		<g>
			<path class="st1" d="M63.9,65.3C63.8,65.3,63.8,65.3,63.9,65.3c0-0.2,0.1-0.5,0.1-0.8c0-1.2-0.9-2.1-2.1-2.1
				c-0.3,0-0.6,0.1-0.9,0.2c-0.4-1.5-1.8-2.6-3.4-2.6c-2,0-3.6,1.6-3.6,3.6c0,0,0,0.1,0,0.1c0,0,0,0,0,0c-1.2,0-2.1,0.9-2.1,2.1
				c0,1.2,0.9,2.1,2.1,2.1h10c0.7,0,1.3-0.6,1.3-1.3C65.2,65.9,64.6,65.3,63.9,65.3z"/>
		</g>
		<g>
			<path class="st2" d="M58.2,67.3C58.2,67.3,58.2,67.3,58.2,67.3c0-0.2,0.1-0.5,0.1-0.8c0-1.2-0.9-2.1-2.1-2.1
				c-0.3,0-0.6,0.1-0.9,0.2c-0.4-1.5-1.8-2.6-3.4-2.6c-2,0-3.6,1.6-3.6,3.6c0,0,0,0.1,0,0.1h0c-1.2,0-2.1,0.9-2.1,2.1
				c0,1.2,0.9,2.1,2.1,2.1h10c0.7,0,1.3-0.6,1.3-1.3C59.6,67.9,59,67.3,58.2,67.3z"/>
		</g>
	</g>
	<g>
		<g>
			<path class="st0" d="M103.3,141.9H83.2c-1.8,0-3.3,1.5-3.3,3.3c0,1.8,1.5,3.3,3.3,3.3h20.1c1.8,0,3.3-1.5,3.3-3.3
				C106.6,143.4,105.1,141.9,103.3,141.9z"/>
		</g>
		<g>
			<path class="st0" d="M101.6,129.3H70c-1.8,0-3.3,1.5-3.3,3.3c0,1.8,1.5,3.3,3.3,3.3h31.6c1.8,0,3.3-1.5,3.3-3.3
				C104.9,130.8,103.4,129.3,101.6,129.3z"/>
		</g>
		<g>
			<path class="st0" d="M114,129.3h-4.9c-1.8,0-3.3,1.5-3.3,3.3c0,1.8,1.5,3.3,3.3,3.3h4.9c1.8,0,3.3-1.5,3.3-3.3
				C117.3,130.8,115.8,129.3,114,129.3z"/>
		</g>
		<g>
			<path class="st0" d="M102.6,135.4h-16c1.6,0,2.9,1.3,2.9,2.9v0.8c0,1.6-1.3,2.9-2.9,2.9h16c-1.6,0-2.9-1.3-2.9-2.9v-0.8
				C99.6,136.7,101,135.4,102.6,135.4z"/>
		</g>
	</g>
	<g>
		<g>
			<path class="st0" d="M108.6,73.3H88.5c-1.8,0-3.3,1.5-3.3,3.3c0,1.8,1.5,3.3,3.3,3.3h20.1c1.8,0,3.3-1.5,3.3-3.3
				C111.9,74.8,110.4,73.3,108.6,73.3z"/>
		</g>
		<g>
			<path class="st0" d="M106.9,60.7H75.3c-1.8,0-3.3,1.5-3.3,3.3c0,1.8,1.5,3.3,3.3,3.3h31.6c1.8,0,3.3-1.5,3.3-3.3
				C110.2,62.2,108.7,60.7,106.9,60.7z"/>
		</g>
		<g>
			<path class="st0" d="M119.3,60.7h-4.9c-1.8,0-3.3,1.5-3.3,3.3c0,1.8,1.5,3.3,3.3,3.3h4.9c1.8,0,3.3-1.5,3.3-3.3
				C122.6,62.2,121.2,60.7,119.3,60.7z"/>
		</g>
		<g>
			<path class="st0" d="M107.9,66.8h-16c1.6,0,2.9,1.3,2.9,2.9v0.8c0,1.6-1.3,2.9-2.9,2.9h16c-1.6,0-2.9-1.3-2.9-2.9v-0.8
				C105,68.2,106.3,66.8,107.9,66.8z"/>
		</g>
	</g>
	<g>
		<g>
			<g>
				<path class="st3" d="M126.4,79.6H60.1c-3.4,0-6.1,2.7-6.1,6.1v40.2c0,3.4,2.7,6.1,6.1,6.1h66.3c3.4,0,6.1-2.7,6.1-6.1V85.7
					C132.5,82.3,129.8,79.6,126.4,79.6z"/>
			</g>
			<g>
				<path class="st4" d="M63.4,113c-3.1,0-5.6,2.5-5.6,5.6c0,3.1,2.5,5.6,5.6,5.6c3.1,0,5.6-2.5,5.6-5.6C69,115.5,66.5,113,63.4,113
					z"/>
			</g>
			<g>
				<path class="st4" d="M67.9,106.2h-9.1c-1.1,0-1.9,0.9-1.9,1.9c0,1.1,0.9,1.9,1.9,1.9h9.1c1.1,0,1.9-0.9,1.9-1.9
					C69.8,107.1,68.9,106.2,67.9,106.2z"/>
			</g>
			<g>
				<path class="st4" d="M67.9,100h-9.1c-1.1,0-1.9,0.9-1.9,1.9c0,1.1,0.9,1.9,1.9,1.9h9.1c1.1,0,1.9-0.9,1.9-1.9
					C69.8,100.9,68.9,100,67.9,100z"/>
			</g>
			<g>
				<path class="st4" d="M67.9,93.8h-9.1c-1.1,0-1.9,0.9-1.9,1.9s0.9,1.9,1.9,1.9h9.1c1.1,0,1.9-0.9,1.9-1.9S68.9,93.8,67.9,93.8z"
					/>
			</g>
			<g>
				<path class="st4" d="M67.9,87.6h-9.1c-1.1,0-1.9,0.9-1.9,1.9c0,1.1,0.9,1.9,1.9,1.9h9.1c1.1,0,1.9-0.9,1.9-1.9
					C69.8,88.4,68.9,87.6,67.9,87.6z"/>
			</g>
			<g>
				<rect x="72.9" y="87.5" class="st4" width="53.9" height="36.2"/>
			</g>
		</g>
		<g>
			<rect x="51.8" y="111.9" class="st3" width="2.3" height="6.1"/>
		</g>
		<g>
			<path class="st3" d="M120,140.4c-1.6-1.3-3.7-1-3.7-1H49.4c-0.4,0-0.8,0-1.2-0.1c-0.7-0.2-1.3-0.5-1.7-0.9
				c-0.4-0.4-0.6-0.9-0.8-1.3c-0.3-0.8-0.3-1.6-0.3-1.6v-17c0-0.9,0.3-1.7,0.8-2.2c0.9-0.9,2.3-0.9,2.3-0.9h3.3v-0.9h-3.3
				c-0.1,0-1.8,0-2.9,1.1c-0.7,0.7-1.1,1.6-1.1,2.8v17c0,0,0,0.2,0,0.5c0.1,0.7,0.3,2,1.3,3c0.8,0.9,2.1,1.4,3.6,1.4h0l66.9,0
				c0,0,1.8-0.3,3,0.8c0.9,0.8,1.3,2,1.3,3.6v1.3c0,0.3,0,0.7-0.1,1c-0.1,1.2-0.6,2-1.2,2.6c-1.2,1.1-3,0.8-3.1,0.8H78.2
				c-1.5,0-2.7,0.4-3.6,1.3c-0.3,0.3-0.5,0.6-0.6,0.9c0.3,0.1,0.6,0.2,0.9,0.2c0.1-0.2,0.2-0.4,0.4-0.5c0.7-0.7,1.7-1.1,2.9-1.1h38
				c0.1,0,2.2,0.3,3.8-1c1-0.8,1.5-2.1,1.6-3.8c0,0,0-0.1,0-0.1h0v-1.7C121.6,142.8,121,141.3,120,140.4z"/>
		</g>
	</g>
	<g>
		<g>
			<g>
				<path class="st4" d="M41.4,63.4c-0.7,0-1.3,0.6-1.3,1.3V72h2.6v-7.3C42.7,63.9,42.1,63.4,41.4,63.4z"/>
			</g>
			<g>
				<path class="st4" d="M41.4,70.7c-1.1,0-1.9,0.9-1.9,1.9v25.7c0,1.1,0.9,1.9,1.9,1.9c1.1,0,1.9-0.9,1.9-1.9V72.6
					C43.4,71.6,42.5,70.7,41.4,70.7z"/>
			</g>
		</g>
		<g>
			<g>
				<path class="st3" d="M45.4,96.2h-7.9c-1,0-1.8,0.9-1.8,2v8.6c0,1.1,0.8,2,1.8,2h7.9c1,0,1.8-0.9,1.8-2v-8.6
					C47.2,97.1,46.4,96.2,45.4,96.2z"/>
			</g>
		</g>
	</g>
	<g>
		<g>
			<path class="st5" d="M117.5,106.3c0,0.7,0.1,1.4,0.2,2c-0.5-0.1-1-0.2-1.5-0.2c-0.2,0-0.4,0-0.6,0c0.2-0.6,0.3-1.3,0.3-1.9
				c0-3.5-2.8-6.3-6.3-6.3c-2.9,0-5.4,2-6.1,4.7c-0.7-0.3-1.4-0.5-2.2-0.6c0-0.3,0.1-0.6,0.1-0.8c0-3.5-2.9-6.4-6.4-6.4
				c-3.1,0-5.6,2.1-6.2,5c-0.3-0.3-0.8-0.6-1.3-0.6c0,0,0,0,0,0c0-3.6-2.9-6.5-6.5-6.5c-3.6,0-6.5,2.9-6.5,6.5c0,1,0.2,2,0.7,2.9
				c-0.1,0-0.2,0-0.4,0c-2,0-3.6,1.6-3.6,3.6c0,0.7,0.2,1.4,0.6,2c-4.2,0.2-7.5,3.6-7.5,7.8c0,2.4,1.1,4.6,2.9,6.1h59.4V96.8
				C121.5,97.1,117.5,101.2,117.5,106.3z"/>
		</g>
		<g>
			<path class="st0" d="M78.7,99.2c0,0.7-0.6,1.3-1.3,1.3c0.7,0,1.3,0.6,1.3,1.3c0-0.7,0.6-1.3,1.3-1.3
				C79.3,100.4,78.7,99.9,78.7,99.2z"/>
		</g>
		<g>
			<path class="st0" d="M80.6,102.2c0,1-0.8,1.8-1.8,1.8c1,0,1.8,0.8,1.8,1.8c0-1,0.8-1.8,1.8-1.8C81.4,104,80.6,103.2,80.6,102.2z"
				/>
		</g>
		<g>
			<path class="st5" d="M83.8,105.9c0,0,0,0-0.1,0c-0.1,0-0.2-0.1-0.4-0.2c-0.4-0.2-0.9-0.4-1.6-0.8c-0.7-0.4-1.5-0.8-2.5-1.4
				c-0.9-0.6-2-1.2-3.1-2c-1.1-0.8-2.3-1.7-3.4-2.7c-0.6-0.5-1.2-1.1-1.7-1.6c-0.6-0.6-1.1-1.2-1.7-1.8c-0.6-0.6-1.1-1.3-1.6-2
				c-0.5-0.7-1-1.4-1.4-2.2c-0.4-0.8-0.9-1.5-1.2-2.4c-0.2-0.4-0.3-0.8-0.5-1.2c-0.1-0.2-0.1-0.4-0.2-0.6c-0.1-0.2-0.2-0.4-0.2-0.6
				l-0.2-0.6c-0.1-0.2-0.1-0.4-0.2-0.7c-0.1-0.4-0.2-0.9-0.3-1.3c0-0.2-0.1-0.4-0.1-0.7c0-0.2-0.1-0.4-0.1-0.7
				c0-0.4-0.1-0.9-0.1-1.3c-0.1-1.8-0.1-3.6,0.2-5.3c0.2-1.7,0.6-3.4,1.1-5c0.5-1.6,1-3,1.6-4.3c0.1-0.2,0.1-0.3,0.2-0.5
				c0.1-0.2,0.1-0.3,0.2-0.5c0.1-0.3,0.3-0.6,0.4-0.9c0.3-0.6,0.6-1.1,0.9-1.7c0.3-0.5,0.6-1,0.8-1.4c0.2-0.4,0.5-0.8,0.7-1.2
				c0.4-0.7,0.8-1.3,1-1.7c0.2-0.4,0.4-0.6,0.4-0.6s-0.2,0.2-0.4,0.5c-0.3,0.4-0.7,0.9-1.3,1.5c-0.3,0.3-0.6,0.7-0.9,1.1
				c-0.3,0.4-0.6,0.9-1,1.3c-0.3,0.5-0.7,1-1.1,1.6c-0.2,0.3-0.4,0.6-0.6,0.9c-0.1,0.1-0.2,0.3-0.3,0.5c-0.1,0.2-0.2,0.3-0.3,0.5
				c-0.8,1.3-1.5,2.7-2.2,4.3c-0.7,1.6-1.3,3.3-1.8,5.1C60.4,77,60.1,79,60,81c0,0.5,0,1,0,1.5c0,0.3,0,0.5,0,0.8c0,0.3,0,0.5,0,0.8
				c0,0.5,0.1,1,0.1,1.5c0,0.3,0.1,0.5,0.1,0.8l0.1,0.8c0,0.3,0.1,0.5,0.2,0.8c0.1,0.3,0.1,0.5,0.2,0.8c0.1,0.5,0.3,1,0.4,1.5
				c0.3,1,0.7,2,1.1,2.9c0.4,1,0.8,1.9,1.3,2.8c0.5,0.9,1,1.8,1.5,2.6c0.5,0.8,1.1,1.6,1.7,2.4c0.6,0.7,1.2,1.5,1.8,2.1
				c1.2,1.3,2.4,2.5,3.5,3.6c1.1,1.1,2.3,2,3.3,2.7c1,0.8,1.9,1.4,2.7,1.9c0.8,0.5,1.4,0.9,1.8,1.2c0.2,0.1,0.4,0.2,0.5,0.3
				c0.1,0.1,0.2,0.1,0.2,0.1l0.1,0.1c0.1,0.1,0.3,0.1,0.5,0.2c2,0.8,4.2-0.3,5-2.2C86.8,108.8,85.8,106.6,83.8,105.9z"/>
		</g>
		<g>
			<path class="st6" d="M118,113.6c-0.6-0.9-1.6-1.4-2.7-1.4c-0.5,0-1,0.1-1.4,0.3c-0.9-2-2.9-3.4-5.2-3.4c-2.4,0-4.5,1.5-5.3,3.7
				c-0.4-0.1-0.8-0.2-1.2-0.2c-0.6,0-1.2,0.1-1.7,0.4c0-0.1,0-0.3,0-0.4c0-3.8-3.1-6.9-6.9-6.9c-2.8,0-5.2,1.6-6.3,4
				c-0.5-0.4-1.1-0.6-1.8-0.6c-0.5,0-1,0.1-1.5,0.4c-1.2-1.7-3.1-2.8-5.3-2.8c-3.5,0-6.4,2.9-6.4,6.4c0,1.2,0.3,2.3,0.9,3.2
				c-2,0.5-3.5,2.3-3.5,4.4c0,1,0.4,2,0.9,2.8h55.9v-16c0,0,0,0,0,0C122.5,107.5,119.1,110.1,118,113.6z"/>
		</g>
		<g>
			<path class="st0" d="M117.1,119.3c-0.1,0-0.1,0-0.2,0c-0.3,0-0.7,0.1-1,0.2c-0.1-3.3-2.9-6-6.2-6c-3.5,0-6.2,2.8-6.2,6.2
				c0,0.1,0,0.1,0,0.2c-0.6-0.4-1.3-0.7-2.1-0.7c-0.4,0-0.8,0.1-1.2,0.2c0.2-0.5,0.2-1.1,0.2-1.6c0-3.2-2.6-5.8-5.8-5.8
				c-3,0-5.4,2.2-5.8,5.1c-0.4-0.1-0.9-0.2-1.3-0.2c-1.3,0-2.4,0.5-3.3,1.4c-1.2-1.7-3.2-2.8-5.5-2.8c-3.7,0-6.7,3-6.7,6.7
				c0,0.5,0,0.9,0.1,1.3h54.1v-10.7c-0.7-0.3-1.6-0.4-2.4-0.4C120.2,112.4,117.2,115.5,117.1,119.3z"/>
		</g>
	</g>
	<g>
		<g>
			<g>
				<g>
					<path class="st4" d="M64.5,38.6c0,0-0.8-0.9-2-0.7c-1.2,0.2-3.5,0.7-3.5,0.7l6.2,13.9l14.3-3.7c0,0-3-0.1-4.5-1.3
						C73.6,46.2,64.5,38.6,64.5,38.6z"/>
				</g>
			</g>
		</g>
		<g>
			<g>
				<g>
					<path class="st5" d="M60.9,38.2l9.4,12.9l1.5-0.4L61.5,38.1C61.3,38.2,61.1,38.2,60.9,38.2z"/>
				</g>
			</g>
		</g>
		<g>
			<g>
				<path class="st7" d="M136.7,41.7c-1.8-1.2-5.9-5.8-18.2-3.4C114.3,39,85.6,44.5,78,46c-7.6,1.5-17.4,8.2-17.4,8.2l0.3,1.1
					c0,0,11.5,4.6,28.5,1.4c3.8-0.7,35.5-6.8,35.5-6.8s8.1-1.6,10.7-2.5c2.6-1,5.2-2.3,4.9-3.7C140.2,42.3,137.6,41.9,136.7,41.7z"
					/>
			</g>
		</g>
		<g>
			<g>
				<g>
					<path class="st4" d="M69.4,57.3c5,0.7,11.8,0.9,19.9-0.6c3.8-0.7,35.5-6.8,35.5-6.8s8.1-1.6,10.7-2.5c2.6-1,5.1-2.3,4.9-3.7
						L69.4,57.3z"/>
				</g>
			</g>
		</g>
		<g>
			<g>
				<g>
					<path class="st5" d="M67.1,56.9c0.4,0.1,0.7,0.1,1.1,0.2l72.2-13.8c-0.1-0.1-0.2-0.2-0.3-0.4L67.1,56.9z"/>
				</g>
			</g>
		</g>
		<g>
			<g>
				<path class="st6" d="M81.4,50.7c-0.1-0.4-0.4-0.6-0.8-0.5l-1.5,0.3c-0.4,0.1-0.6,0.4-0.5,0.8l0.7,3.8c0.1,0.4,0.4,0.6,0.8,0.5
					l1.5-0.3c0.4-0.1,0.6-0.4,0.5-0.8L81.4,50.7z"/>
			</g>
		</g>
		<g>
			<g>
				<path class="st6" d="M125.6,42.9c-0.1-0.4-0.4-0.6-0.8-0.5l-1.5,0.3c-0.4,0.1-0.6,0.4-0.5,0.8l0.7,3.8c0.1,0.4,0.4,0.6,0.8,0.5
					l1.5-0.3c0.4-0.1,0.6-0.4,0.5-0.8L125.6,42.9z"/>
			</g>
		</g>
		<g>
			<g>
				<g>
					<g>
						<path class="st4" d="M86.1,48.9c-0.1-0.6-0.6-0.9-1.2-0.8l-0.5,0.1c-0.6,0.1-0.9,0.6-0.8,1.2l0.2,1.2c0.1,0.6,0.6,0.9,1.2,0.8
							l0.5-0.1c0.6-0.1,0.9-0.6,0.8-1.2L86.1,48.9z"/>
					</g>
				</g>
				<g>
					<g>
						<path class="st6" d="M85.8,48.7c0-0.2-0.2-0.4-0.5-0.4c0,0-0.1,0-0.1,0l-1,0.2c-0.2,0-0.4,0.3-0.4,0.5l0.3,1.7
							c0,0.2,0.2,0.4,0.5,0.4c0,0,0.1,0,0.1,0l1-0.2c0.1,0,0.2-0.1,0.3-0.2c0.1-0.1,0.1-0.2,0.1-0.3L85.8,48.7z"/>
					</g>
				</g>
			</g>
			<g>
				<g>
					<g>
						<path class="st4" d="M89.6,48.3c-0.1-0.6-0.6-0.9-1.2-0.8l-0.5,0.1c-0.6,0.1-0.9,0.6-0.8,1.2l0.2,1.2c0.1,0.6,0.6,0.9,1.2,0.8
							l0.5-0.1c0.6-0.1,0.9-0.6,0.8-1.2L89.6,48.3z"/>
					</g>
				</g>
				<g>
					<g>
						<path class="st6" d="M89.2,48.1c0-0.2-0.2-0.4-0.5-0.4c0,0-0.1,0-0.1,0l-1,0.2c-0.3,0-0.4,0.3-0.4,0.5l0.3,1.7
							c0,0.2,0.2,0.4,0.5,0.4c0,0,0.1,0,0.1,0l1-0.2c0.1,0,0.2-0.1,0.3-0.2c0.1-0.1,0.1-0.2,0.1-0.3L89.2,48.1z"/>
					</g>
				</g>
			</g>
			<g>
				<g>
					<g>
						<path class="st4" d="M93,47.6c-0.1-0.6-0.6-0.9-1.2-0.8l-0.5,0.1c-0.6,0.1-0.9,0.6-0.8,1.2l0.2,1.2c0.1,0.6,0.6,0.9,1.2,0.8
							l0.5-0.1c0.6-0.1,0.9-0.6,0.8-1.2L93,47.6z"/>
					</g>
				</g>
				<g>
					<g>
						<path class="st6" d="M92.6,47.4c0-0.2-0.2-0.4-0.5-0.4c0,0-0.1,0-0.1,0l-1,0.2c-0.2,0-0.4,0.3-0.4,0.5l0.3,1.7
							c0,0.2,0.2,0.4,0.5,0.4c0,0,0.1,0,0.1,0l1-0.2c0.1,0,0.2-0.1,0.3-0.2c0.1-0.1,0.1-0.2,0.1-0.3L92.6,47.4z"/>
					</g>
				</g>
			</g>
			<g>
				<g>
					<g>
						<path class="st4" d="M96.4,47c-0.1-0.6-0.6-0.9-1.2-0.8l-0.5,0.1c-0.6,0.1-0.9,0.6-0.8,1.2l0.2,1.2c0.1,0.6,0.6,0.9,1.2,0.8
							l0.5-0.1c0.6-0.1,0.9-0.6,0.8-1.2L96.4,47z"/>
					</g>
				</g>
				<g>
					<g>
						<path class="st6" d="M96.1,46.8c0-0.2-0.2-0.4-0.5-0.4c0,0-0.1,0-0.1,0l-1,0.2c-0.2,0-0.4,0.3-0.4,0.5l0.3,1.7
							c0,0.2,0.2,0.4,0.5,0.4c0,0,0.1,0,0.1,0l1-0.2c0.3,0,0.4-0.3,0.4-0.5L96.1,46.8z"/>
					</g>
				</g>
			</g>
			<g>
				<g>
					<g>
						<path class="st4" d="M99.9,46.3c-0.1-0.6-0.6-0.9-1.2-0.8l-0.5,0.1c-0.6,0.1-0.9,0.6-0.8,1.2l0.2,1.2c0.1,0.6,0.6,0.9,1.2,0.8
							l0.5-0.1c0.6-0.1,0.9-0.6,0.8-1.2L99.9,46.3z"/>
					</g>
				</g>
				<g>
					<g>
						<path class="st6" d="M99.5,46.1c0-0.2-0.2-0.4-0.5-0.4c0,0-0.1,0-0.1,0l-1,0.2c-0.2,0-0.4,0.3-0.4,0.5l0.3,1.7
							c0,0.2,0.2,0.4,0.5,0.4c0,0,0.1,0,0.1,0l1-0.2c0.2,0,0.4-0.3,0.4-0.5L99.5,46.1z"/>
					</g>
				</g>
			</g>
			<g>
				<g>
					<g>
						<path class="st4" d="M103.3,45.6c-0.1-0.6-0.6-0.9-1.2-0.8l-0.5,0.1c-0.6,0.1-0.9,0.6-0.8,1.2l0.2,1.2
							c0.1,0.6,0.6,0.9,1.2,0.8l0.5-0.1c0.6-0.1,0.9-0.6,0.8-1.2L103.3,45.6z"/>
					</g>
				</g>
				<g>
					<g>
						<path class="st6" d="M103,45.5c0-0.2-0.2-0.4-0.5-0.4c0,0-0.1,0-0.1,0l-1,0.2c-0.1,0-0.2,0.1-0.3,0.2
							c-0.1,0.1-0.1,0.2-0.1,0.3l0.3,1.7c0,0.2,0.2,0.4,0.5,0.4c0,0,0.1,0,0.1,0l1-0.2c0.3,0,0.4-0.3,0.4-0.5L103,45.5z"/>
					</g>
				</g>
			</g>
			<g>
				<g>
					<g>
						<path class="st4" d="M106.7,45c-0.1-0.6-0.6-0.9-1.2-0.8l-0.5,0.1c-0.6,0.1-0.9,0.6-0.8,1.2l0.2,1.2c0.1,0.6,0.6,0.9,1.2,0.8
							l0.5-0.1c0.6-0.1,0.9-0.6,0.8-1.2L106.7,45z"/>
					</g>
				</g>
				<g>
					<g>
						<path class="st6" d="M106.4,44.8c0-0.2-0.2-0.4-0.5-0.4c0,0-0.1,0-0.1,0l-1,0.2c-0.1,0-0.2,0.1-0.3,0.2
							c-0.1,0.1-0.1,0.2-0.1,0.3l0.3,1.7c0,0.2,0.2,0.4,0.5,0.4c0,0,0.1,0,0.1,0l1-0.2c0.1,0,0.2-0.1,0.3-0.2
							c0.1-0.1,0.1-0.2,0.1-0.3L106.4,44.8z"/>
					</g>
				</g>
			</g>
			<g>
				<g>
					<g>
						<path class="st4" d="M110.2,44.3c-0.1-0.6-0.6-0.9-1.2-0.8l-0.5,0.1c-0.6,0.1-0.9,0.6-0.8,1.2l0.2,1.2
							c0.1,0.6,0.6,0.9,1.2,0.8l0.5-0.1c0.6-0.1,0.9-0.6,0.8-1.2L110.2,44.3z"/>
					</g>
				</g>
				<g>
					<g>
						<path class="st6" d="M109.8,44.1c0-0.2-0.2-0.4-0.5-0.4c0,0-0.1,0-0.1,0l-1,0.2c-0.1,0-0.2,0.1-0.3,0.2
							c-0.1,0.1-0.1,0.2-0.1,0.3l0.3,1.7c0,0.2,0.2,0.4,0.5,0.4c0,0,0.1,0,0.1,0l1-0.2c0.2,0,0.4-0.3,0.4-0.5L109.8,44.1z"/>
					</g>
				</g>
			</g>
			<g>
				<g>
					<g>
						<path class="st4" d="M113.6,43.7c-0.1-0.6-0.6-0.9-1.2-0.8l-0.5,0.1c-0.6,0.1-0.9,0.6-0.8,1.2l0.2,1.2
							c0.1,0.6,0.6,0.9,1.2,0.8l0.5-0.1c0.6-0.1,0.9-0.6,0.8-1.2L113.6,43.7z"/>
					</g>
				</g>
				<g>
					<g>
						<path class="st6" d="M113.3,43.5c0-0.2-0.2-0.4-0.5-0.4c0,0-0.1,0-0.1,0l-1,0.2c-0.1,0-0.2,0.1-0.3,0.2
							c-0.1,0.1-0.1,0.2-0.1,0.3l0.3,1.7c0,0.2,0.2,0.4,0.5,0.4c0,0,0.1,0,0.1,0l1-0.2c0.2,0,0.4-0.3,0.4-0.5L113.3,43.5z"/>
					</g>
				</g>
			</g>
			<g>
				<g>
					<g>
						<path class="st4" d="M117.1,43c-0.1-0.6-0.6-0.9-1.2-0.8l-0.5,0.1c-0.6,0.1-0.9,0.6-0.8,1.2l0.2,1.2c0.1,0.6,0.6,0.9,1.2,0.8
							l0.5-0.1c0.6-0.1,0.9-0.6,0.8-1.2L117.1,43z"/>
					</g>
				</g>
				<g>
					<g>
						<path class="st6" d="M116.7,42.8c0-0.2-0.2-0.4-0.5-0.4c0,0-0.1,0-0.1,0l-1,0.2c-0.2,0-0.4,0.3-0.4,0.5l0.3,1.7
							c0,0.2,0.2,0.4,0.5,0.4c0,0,0.1,0,0.1,0l1-0.2c0.1,0,0.2-0.1,0.3-0.2c0.1-0.1,0.1-0.2,0.1-0.3L116.7,42.8z"/>
					</g>
				</g>
			</g>
			<g>
				<g>
					<g>
						<path class="st4" d="M120.5,42.4c-0.1-0.6-0.6-0.9-1.2-0.8l-0.5,0.1c-0.6,0.1-0.9,0.6-0.8,1.2l0.2,1.2
							c0.1,0.6,0.6,0.9,1.2,0.8l0.5-0.1c0.6-0.1,0.9-0.6,0.8-1.2L120.5,42.4z"/>
					</g>
				</g>
				<g>
					<g>
						<path class="st6" d="M120.1,42.2c0-0.2-0.2-0.4-0.5-0.4c0,0-0.1,0-0.1,0l-1,0.2c-0.2,0-0.4,0.3-0.4,0.5l0.3,1.7
							c0,0.2,0.2,0.4,0.5,0.4c0,0,0.1,0,0.1,0l1-0.2c0.1,0,0.2-0.1,0.3-0.2c0.1-0.1,0.1-0.2,0.1-0.3L120.1,42.2z"/>
					</g>
				</g>
			</g>
			<g>
				<g>
					<g>
						<path class="st4" d="M134.3,41.4l-1.8-1.3c-0.1-0.1-0.3-0.1-0.5-0.1l-0.7,0.2c-0.2,0-0.4,0.3-0.3,0.5l0.3,1.2
							c0.1,0.3,0.4,0.5,0.6,0.4l2.3-0.4C134.4,41.8,134.5,41.5,134.3,41.4z"/>
					</g>
				</g>
			</g>
			<g>
				<g>
					<g>
						<path class="st4" d="M133.5,39.5l-0.2,0.2c0,0-0.3,0.2,0.1,0.4c0.3,0.2,1,0.7,1.4,1c0.3,0.2,0.5,0.1,0.5,0.1l0.5-0.2
							C135.3,40.6,134.5,40.1,133.5,39.5C133.6,39.5,133.6,39.5,133.5,39.5z"/>
					</g>
				</g>
			</g>
		</g>
		<g>
			<g>
				<path class="st7" d="M111.9,49.8c-0.8,0.2-4.8,1.6-7.4,2.6l0.7,3.5c2.8-0.1,6.9-0.2,7.9-0.4c1.9-0.4,3.5-1.2,3.5-1.2l-0.9-4.7
					C115.6,49.6,114.4,49.3,111.9,49.8z"/>
			</g>
		</g>
		<g>
			<g>
				<g>
					<path class="st6" d="M104.9,54.6l0.2,1.2c2.8-0.1,6.9-0.2,7.9-0.4c1.9-0.4,3.5-1.2,3.5-1.2l-0.3-1.6L104.9,54.6z"/>
				</g>
			</g>
			<g>
				<g>
					<path class="st7" d="M114,49.6h0.9C114.7,49.5,114.4,49.5,114,49.6z"/>
				</g>
			</g>
		</g>
		<g>
			<g>
				<path class="st6" d="M103.1,53.2l0.5,2.4c0,0,0.6,0,1.5,0l-0.6-2.9C103.6,53,103.1,53.2,103.1,53.2z"/>
			</g>
		</g>
		<g>
			<g>
				<path class="st6" d="M102.2,53.7l0.4,1.9c0,0,0.4,0,1,0l-0.4-2.2C102.5,53.5,102.2,53.7,102.2,53.7z"/>
			</g>
		</g>
		<g>
			<g>
				<path class="st6" d="M102.6,53.5l0.4,2c0.2,0,0.3,0,0.5,0l-0.4-2.2C102.9,53.4,102.7,53.5,102.6,53.5z"/>
			</g>
		</g>
		<g>
			<g>
				<path class="st6" d="M104,52.8l0.5,2.8c0.2,0,0.3,0,0.5,0l-0.6-2.9C104.3,52.7,104.1,52.8,104,52.8z"/>
			</g>
		</g>
		<g>
			<g>
				<path class="st7" d="M105.6,49.8c-0.1-0.4-0.5-0.7-0.9-0.6l-20.6,3.9c-0.4,0.1-0.7,0.5-0.6,0.9l0.1,0.4c0.1,0.4,0.5,0.7,0.9,0.6
					l20.6-3.9c0.4-0.1,0.7-0.5,0.6-0.9L105.6,49.8z"/>
			</g>
		</g>
	</g>
	<g>
		<g>
			<path class="st1" d="M136.7,68.7C136.7,68.7,136.7,68.7,136.7,68.7c0,0,0-0.1,0-0.1c0-2.1-1.7-3.9-3.8-3.9
				c-1.7,0-3.2,1.2-3.7,2.7c-0.3-0.1-0.6-0.2-1-0.2c-1.2,0-2.2,1-2.2,2.2c0,0.3,0.1,0.6,0.2,0.8c0,0-0.1,0-0.1,0
				c-0.8,0-1.4,0.6-1.4,1.4s0.6,1.4,1.4,1.4h10.7c1.2,0,2.2-1,2.2-2.2C139,69.7,138,68.7,136.7,68.7z"/>
		</g>
		<g>
			<path class="st2" d="M143.3,72.9L143.3,72.9c0,0,0-0.1,0-0.1c0-2.1-1.7-3.8-3.8-3.8c-1.7,0-3.2,1.2-3.7,2.7
				c-0.3-0.1-0.6-0.2-1-0.2c-1.2,0-2.2,1-2.2,2.2c0,0.3,0.1,0.6,0.2,0.8c0,0,0,0-0.1,0c-0.8,0-1.4,0.6-1.4,1.4
				c0,0.8,0.6,1.4,1.4,1.4h10.7c1.2,0,2.2-1,2.2-2.2C145.5,73.9,144.5,72.9,143.3,72.9z"/>
		</g>
	</g>
</g>
</svg>
